<svg width="136" height="75" viewBox="0 0 136 75" fill="none" xmlns="http://www.w3.org/2000/svg">
<path fill-rule="evenodd" clip-rule="evenodd" d="M76.7768 12.0197C76.8967 12.1901 76.9998 12.3737 77.0839 12.5686C82.0438 13.9067 85.6952 18.3349 85.6952 23.5771C85.6952 29.8757 80.4243 35 73.9455 35C70.563 35 67.5104 33.6028 65.3646 31.3715H57.2193C55.4662 31.3715 54.04 29.9849 54.04 28.2806C54.04 27.3018 54.5109 26.4283 55.2436 25.8616C54.5109 25.2949 54.04 24.4215 54.04 23.4426C54.04 22.4638 54.5109 21.5904 55.2436 21.0237C54.5109 20.457 54.04 19.5835 54.04 18.6047C54.04 17.6259 54.5109 16.7525 55.2436 16.1857C54.5109 15.619 54.04 14.7456 54.04 13.7668C54.04 12.0625 55.4662 10.6759 57.2193 10.6759H59.0218C58.6699 10.1785 58.4634 9.57679 58.4634 8.92884C58.4634 8.28089 58.67 7.67917 59.0218 7.18181H53.487C51.734 7.18181 50.3077 5.7952 50.3077 4.0909C50.3077 2.38661 51.734 1 53.487 1H70.4205C72.1735 1 73.5998 2.38661 73.5998 4.0909C73.5998 4.73885 73.3932 5.34057 73.0413 5.83794H78.5762C80.3292 5.83794 81.7555 7.22454 81.7555 8.92884C81.7555 10.6331 80.3292 12.0197 78.5762 12.0197H76.7768ZM80.3732 8.92884C80.3732 7.96555 79.5671 7.18181 78.5762 7.18181H61.6427C60.6518 7.18181 59.8457 7.96555 59.8457 8.92884C59.8457 9.89213 60.6518 10.6759 61.6427 10.6759H74.1527H78.5762C79.5671 10.6759 80.3732 9.89213 80.3732 8.92884ZM51.69 4.0909C51.69 5.05419 52.4961 5.83794 53.487 5.83794H70.4205C71.4114 5.83794 72.2175 5.05419 72.2175 4.0909C72.2175 3.12762 71.4114 2.34387 70.4205 2.34387H53.487C52.4961 2.34387 51.69 3.12762 51.69 4.0909ZM74.1527 12.0197H57.2193C56.2285 12.0197 55.4223 12.8035 55.4223 13.7668C55.4223 14.7301 56.2285 15.5138 57.2193 15.5138H65.6309C67.7592 13.4395 70.7008 12.1542 73.9455 12.1542C74.2794 12.1542 74.6099 12.1686 74.9369 12.1953C74.6977 12.0826 74.4311 12.0197 74.1527 12.0197ZM64.4499 16.8577H57.2193C56.2284 16.8577 55.4223 17.6414 55.4223 18.6047C55.4223 19.5681 56.2284 20.3517 57.2193 20.3517H62.6734C63.0586 19.0814 63.6653 17.9027 64.4499 16.8577ZM62.356 21.6956H57.2193C56.2284 21.6956 55.4223 22.4793 55.4223 23.4426C55.4223 24.406 56.2284 25.1897 57.2193 25.1897H62.3134C62.2364 24.6627 62.1957 24.1245 62.1957 23.5771C62.1957 22.9363 62.2512 22.3079 62.356 21.6956ZM55.4223 28.2806C55.4223 29.2439 56.2284 30.0276 57.2193 30.0276H64.2539C63.5109 28.9758 62.9443 27.7977 62.5956 26.5335H57.2193C56.2284 26.5335 55.4223 27.3172 55.4223 28.2806ZM63.578 23.5771C63.578 29.1347 68.2289 33.6561 73.9455 33.6561C79.662 33.6561 84.3129 29.1347 84.3129 23.5771C84.3129 18.0195 79.662 13.4981 73.9455 13.4981C68.2289 13.4981 63.578 18.0195 63.578 23.5771ZM72.1824 21.2802C72.1824 22.0967 72.9718 22.7609 73.9421 22.7609C75.7945 22.7609 77.3016 24.1228 77.3016 25.7969C77.3016 27.2219 76.2094 28.42 74.742 28.7452V29.0811C74.742 29.5105 74.3838 29.8588 73.9421 29.8588C73.5005 29.8588 73.1423 29.5105 73.1423 29.0811V28.7452C71.6748 28.42 70.5827 27.2219 70.5827 25.7969C70.5827 25.3675 70.9409 25.0193 71.3826 25.0193C71.8243 25.0193 72.1824 25.3675 72.1824 25.7969C72.1824 26.6134 72.9718 27.2776 73.9421 27.2776C74.9125 27.2776 75.7018 26.6134 75.7018 25.7969C75.7018 24.9804 74.9125 24.3161 73.9421 24.3161C72.0897 24.3161 70.5827 22.9542 70.5827 21.2802C70.5827 19.8553 71.6748 18.6571 73.1423 18.3319V17.9275C73.1423 17.4981 73.5005 17.1499 73.9421 17.1499C74.3838 17.1499 74.742 17.4981 74.742 17.9275V18.3319C76.2094 18.6571 77.3016 19.8553 77.3016 21.2802C77.3016 21.7096 76.9434 22.0579 76.5017 22.0579C76.06 22.0579 75.7018 21.7096 75.7018 21.2802C75.7018 20.4637 74.9125 19.7995 73.9421 19.7995C72.9718 19.7995 72.1824 20.4637 72.1824 21.2802Z" fill="#685CF3"/>
<path d="M77.0839 12.5686L76.8543 12.6677L76.9022 12.7785L77.0188 12.8099L77.0839 12.5686ZM76.7768 12.0197V11.7697H76.2951L76.5724 12.1637L76.7768 12.0197ZM65.3646 31.3715L65.5448 31.1982L65.4711 31.1215H65.3646V31.3715ZM55.2436 25.8616L55.3966 26.0594L55.6522 25.8616L55.3966 25.6639L55.2436 25.8616ZM55.2436 21.0237L55.3966 21.2214L55.6522 21.0237L55.3966 20.8259L55.2436 21.0237ZM55.2436 16.1857L55.3966 16.3835L55.6522 16.1857L55.3966 15.988L55.2436 16.1857ZM59.0218 10.6759V10.9259H59.505L59.2259 10.5315L59.0218 10.6759ZM59.0218 7.18181L59.2259 7.32619L59.5049 6.93181H59.0218V7.18181ZM73.0413 5.83794L72.8373 5.69355L72.5582 6.08794H73.0413V5.83794ZM65.6309 15.5138V15.7638H65.7325L65.8053 15.6928L65.6309 15.5138ZM74.9369 12.1953L74.9165 12.4444L75.0434 11.9691L74.9369 12.1953ZM64.4499 16.8577L64.6498 17.0078L64.9502 16.6077H64.4499V16.8577ZM62.6734 20.3517V20.6017H62.8588L62.9126 20.4243L62.6734 20.3517ZM62.356 21.6956L62.6024 21.7378L62.6524 21.4456H62.356V21.6956ZM62.3134 25.1897V25.4397H62.6025L62.5607 25.1536L62.3134 25.1897ZM64.2539 30.0276V30.2776H64.7365L64.4581 29.8834L64.2539 30.0276ZM62.5956 26.5335L62.8366 26.4671L62.7859 26.2835H62.5956V26.5335ZM74.742 28.7452L74.6879 28.5011L74.492 28.5445V28.7452H74.742ZM73.1423 28.7452H73.3923V28.5445L73.1964 28.5011L73.1423 28.7452ZM73.1423 18.3319L73.1964 18.576L73.3923 18.5326V18.3319H73.1423ZM74.742 18.3319H74.492V18.5326L74.6879 18.576L74.742 18.3319ZM77.3134 12.4695C77.2225 12.2589 77.111 12.0602 76.9812 11.8758L76.5724 12.1637C76.6824 12.3199 76.777 12.4886 76.8543 12.6677L77.3134 12.4695ZM85.9452 23.5771C85.9452 18.2145 82.2107 13.6928 77.149 12.3272L77.0188 12.8099C81.8768 14.1206 85.4452 18.4552 85.4452 23.5771H85.9452ZM73.9455 35.25C80.5556 35.25 85.9452 30.0204 85.9452 23.5771H85.4452C85.4452 29.731 80.2929 34.75 73.9455 34.75V35.25ZM65.1844 31.5448C67.376 33.8237 70.4931 35.25 73.9455 35.25V34.75C70.6329 34.75 67.6448 33.3819 65.5448 31.1982L65.1844 31.5448ZM57.2193 31.6215H65.3646V31.1215H57.2193V31.6215ZM53.79 28.2806C53.79 30.1295 55.3349 31.6215 57.2193 31.6215V31.1215C55.5976 31.1215 54.29 29.8402 54.29 28.2806H53.79ZM55.0907 25.6639C54.301 26.2746 53.79 27.2192 53.79 28.2806H54.29C54.29 27.3844 54.7208 26.582 55.3966 26.0594L55.0907 25.6639ZM53.79 23.4426C53.79 24.5041 54.301 25.4486 55.0907 26.0594L55.3966 25.6639C54.7208 25.1412 54.29 24.3388 54.29 23.4426H53.79ZM55.0907 20.8259C54.301 21.4367 53.79 22.3812 53.79 23.4426H54.29C54.29 22.5465 54.7208 21.7441 55.3966 21.2214L55.0907 20.8259ZM53.79 18.6047C53.79 19.6661 54.301 20.6107 55.0907 21.2214L55.3966 20.8259C54.7208 20.3033 54.29 19.5009 54.29 18.6047H53.79ZM55.0907 15.988C54.301 16.5987 53.79 17.5433 53.79 18.6047H54.29C54.29 17.7085 54.7208 16.9062 55.3966 16.3835L55.0907 15.988ZM53.79 13.7668C53.79 14.8282 54.301 15.7727 55.0907 16.3835L55.3966 15.988C54.7208 15.4653 54.29 14.663 54.29 13.7668H53.79ZM57.2193 10.4259C55.3349 10.4259 53.79 11.9178 53.79 13.7668H54.29C54.29 12.2071 55.5976 10.9259 57.2193 10.9259V10.4259ZM59.0218 10.4259H57.2193V10.9259H59.0218V10.4259ZM58.2134 8.92884C58.2134 9.63092 58.4374 10.2827 58.8178 10.8203L59.2259 10.5315C58.9024 10.0743 58.7134 9.52265 58.7134 8.92884H58.2134ZM58.8178 7.03742C58.4375 7.57498 58.2134 8.22674 58.2134 8.92884H58.7134C58.7134 8.33504 58.9025 7.78337 59.2259 7.32619L58.8178 7.03742ZM53.487 7.43181H59.0218V6.93181H53.487V7.43181ZM50.0577 4.0909C50.0577 5.93987 51.6026 7.43181 53.487 7.43181V6.93181C51.8653 6.93181 50.5577 5.65053 50.5577 4.0909H50.0577ZM53.487 0.75C51.6026 0.75 50.0577 2.24193 50.0577 4.0909H50.5577C50.5577 2.53128 51.8653 1.25 53.487 1.25V0.75ZM70.4205 0.75H53.487V1.25H70.4205V0.75ZM73.8498 4.0909C73.8498 2.24193 72.3049 0.75 70.4205 0.75V1.25C72.0421 1.25 73.3498 2.53128 73.3498 4.0909H73.8498ZM73.2454 5.98232C73.6257 5.44476 73.8498 4.793 73.8498 4.0909H73.3498C73.3498 4.6847 73.1607 5.23637 72.8373 5.69355L73.2454 5.98232ZM78.5762 5.58794H73.0413V6.08794H78.5762V5.58794ZM82.0055 8.92884C82.0055 7.07987 80.4606 5.58794 78.5762 5.58794V6.08794C80.1978 6.08794 81.5055 7.36921 81.5055 8.92884H82.0055ZM78.5762 12.2697C80.4606 12.2697 82.0055 10.7778 82.0055 8.92884H81.5055C81.5055 10.4885 80.1978 11.7697 78.5762 11.7697V12.2697ZM76.7768 12.2697H78.5762V11.7697H76.7768V12.2697ZM78.5762 7.43181C79.4357 7.43181 80.1232 8.11022 80.1232 8.92884H80.6232C80.6232 7.82089 79.6985 6.93181 78.5762 6.93181V7.43181ZM61.6427 7.43181H78.5762V6.93181H61.6427V7.43181ZM60.0957 8.92884C60.0957 8.11022 60.7832 7.43181 61.6427 7.43181V6.93181C60.5204 6.93181 59.5957 7.82089 59.5957 8.92884H60.0957ZM61.6427 10.4259C60.7832 10.4259 60.0957 9.74746 60.0957 8.92884H59.5957C59.5957 10.0368 60.5204 10.9259 61.6427 10.9259V10.4259ZM74.1527 10.4259H61.6427V10.9259H74.1527V10.4259ZM78.5762 10.4259H74.1527V10.9259H78.5762V10.4259ZM80.1232 8.92884C80.1232 9.74746 79.4357 10.4259 78.5762 10.4259V10.9259C79.6985 10.9259 80.6232 10.0368 80.6232 8.92884H80.1232ZM53.487 5.58794C52.6275 5.58794 51.94 4.90952 51.94 4.0909H51.44C51.44 5.19886 52.3647 6.08794 53.487 6.08794V5.58794ZM70.4205 5.58794H53.487V6.08794H70.4205V5.58794ZM71.9675 4.0909C71.9675 4.90952 71.28 5.58794 70.4205 5.58794V6.08794C71.5428 6.08794 72.4675 5.19886 72.4675 4.0909H71.9675ZM70.4205 2.59387C71.28 2.59387 71.9675 3.27228 71.9675 4.0909H72.4675C72.4675 2.98295 71.5428 2.09387 70.4205 2.09387V2.59387ZM53.487 2.59387H70.4205V2.09387H53.487V2.59387ZM51.94 4.0909C51.94 3.27228 52.6275 2.59387 53.487 2.59387V2.09387C52.3647 2.09387 51.44 2.98295 51.44 4.0909H51.94ZM57.2193 12.2697H74.1527V11.7697H57.2193V12.2697ZM55.6723 13.7668C55.6723 12.9482 56.3598 12.2697 57.2193 12.2697V11.7697C56.0971 11.7697 55.1723 12.6588 55.1723 13.7668H55.6723ZM57.2193 15.2638C56.3598 15.2638 55.6723 14.5854 55.6723 13.7668H55.1723C55.1723 14.8747 56.0971 15.7638 57.2193 15.7638V15.2638ZM65.6309 15.2638H57.2193V15.7638H65.6309V15.2638ZM73.9455 11.9042C70.6338 11.9042 67.6301 13.2163 65.4564 15.3348L65.8053 15.6928C67.8883 13.6628 70.7678 12.4042 73.9455 12.4042V11.9042ZM74.9572 11.9461C74.6239 11.9189 74.2866 11.9042 73.9455 11.9042V12.4042C74.2722 12.4042 74.596 12.4183 74.9165 12.4444L74.9572 11.9461ZM74.1527 12.2697C74.3933 12.2697 74.6236 12.3241 74.8303 12.4214L75.0434 11.9691C74.7719 11.8412 74.469 11.7697 74.1527 11.7697V12.2697ZM57.2193 17.1077H64.4499V16.6077H57.2193V17.1077ZM55.6723 18.6047C55.6723 17.7861 56.3598 17.1077 57.2193 17.1077V16.6077C56.097 16.6077 55.1723 17.4968 55.1723 18.6047H55.6723ZM57.2193 20.1017C56.3598 20.1017 55.6723 19.4234 55.6723 18.6047H55.1723C55.1723 19.7127 56.097 20.6017 57.2193 20.6017V20.1017ZM62.6734 20.1017H57.2193V20.6017H62.6734V20.1017ZM64.2499 16.7076C63.4483 17.7753 62.8281 18.9802 62.4341 20.2792L62.9126 20.4243C63.2892 19.1827 63.8822 18.0301 64.6498 17.0078L64.2499 16.7076ZM57.2193 21.9456H62.356V21.4456H57.2193V21.9456ZM55.6723 23.4426C55.6723 22.624 56.3598 21.9456 57.2193 21.9456V21.4456C56.097 21.4456 55.1723 22.3346 55.1723 23.4426H55.6723ZM57.2193 24.9397C56.3598 24.9397 55.6723 24.2613 55.6723 23.4426H55.1723C55.1723 24.5507 56.097 25.4397 57.2193 25.4397V24.9397ZM62.3134 24.9397H57.2193V25.4397H62.3134V24.9397ZM61.9457 23.5771C61.9457 24.1369 61.9874 24.6872 62.066 25.2258L62.5607 25.1536C62.4855 24.6382 62.4457 24.112 62.4457 23.5771H61.9457ZM62.1096 21.6534C62.0024 22.2794 61.9457 22.9218 61.9457 23.5771H62.4457C62.4457 22.9507 62.4999 22.3365 62.6024 21.7378L62.1096 21.6534ZM57.2193 29.7776C56.3598 29.7776 55.6723 29.0993 55.6723 28.2806H55.1723C55.1723 29.3886 56.097 30.2776 57.2193 30.2776V29.7776ZM64.2539 29.7776H57.2193V30.2776H64.2539V29.7776ZM62.3546 26.6C62.7112 27.8927 63.2905 29.0971 64.0497 30.1718L64.4581 29.8834C63.7313 28.8545 63.1774 27.7026 62.8366 26.4671L62.3546 26.6ZM57.2193 26.7835H62.5956V26.2835H57.2193V26.7835ZM55.6723 28.2806C55.6723 27.4619 56.3598 26.7835 57.2193 26.7835V26.2835C56.097 26.2835 55.1723 27.1726 55.1723 28.2806H55.6723ZM73.9455 33.4061C68.3602 33.4061 63.828 28.99 63.828 23.5771H63.328C63.328 29.2794 68.0975 33.9061 73.9455 33.9061V33.4061ZM84.0629 23.5771C84.0629 28.99 79.5307 33.4061 73.9455 33.4061V33.9061C79.7934 33.9061 84.5629 29.2794 84.5629 23.5771H84.0629ZM73.9455 13.7481C79.5307 13.7481 84.0629 18.1642 84.0629 23.5771H84.5629C84.5629 17.8748 79.7934 13.2481 73.9455 13.2481V13.7481ZM63.828 23.5771C63.828 18.1642 68.3602 13.7481 73.9455 13.7481V13.2481C68.0975 13.2481 63.328 17.8748 63.328 23.5771H63.828ZM73.9421 22.5109C73.0677 22.5109 72.4324 21.9199 72.4324 21.2802H71.9324C71.9324 22.2734 72.8759 23.0109 73.9421 23.0109V22.5109ZM77.5516 25.7969C77.5516 23.9615 75.9082 22.5109 73.9421 22.5109V23.0109C75.6809 23.0109 77.0516 24.2841 77.0516 25.7969H77.5516ZM74.7961 28.9893C76.3584 28.6431 77.5516 27.358 77.5516 25.7969H77.0516C77.0516 27.0857 76.0605 28.197 74.6879 28.5011L74.7961 28.9893ZM74.992 29.0811V28.7452H74.492V29.0811H74.992ZM73.9421 30.1088C74.5152 30.1088 74.992 29.6552 74.992 29.0811H74.492C74.492 29.3659 74.2524 29.6088 73.9421 29.6088V30.1088ZM72.8923 29.0811C72.8923 29.6552 73.3691 30.1088 73.9421 30.1088V29.6088C73.6318 29.6088 73.3923 29.3659 73.3923 29.0811H72.8923ZM72.8923 28.7452V29.0811H73.3923V28.7452H72.8923ZM70.3327 25.7969C70.3327 27.358 71.5259 28.6431 73.0882 28.9893L73.1964 28.5011C71.8238 28.197 70.8327 27.0857 70.8327 25.7969H70.3327ZM71.3826 24.7693C70.8095 24.7693 70.3327 25.2228 70.3327 25.7969H70.8327C70.8327 25.5121 71.0723 25.2693 71.3826 25.2693V24.7693ZM72.4324 25.7969C72.4324 25.2228 71.9556 24.7693 71.3826 24.7693V25.2693C71.6929 25.2693 71.9324 25.5121 71.9324 25.7969H72.4324ZM73.9421 27.0276C73.0677 27.0276 72.4324 26.4366 72.4324 25.7969H71.9324C71.9324 26.7901 72.8759 27.5276 73.9421 27.5276V27.0276ZM75.4518 25.7969C75.4518 26.4366 74.8166 27.0276 73.9421 27.0276V27.5276C75.0084 27.5276 75.9518 26.7901 75.9518 25.7969H75.4518ZM73.9421 24.5661C74.8166 24.5661 75.4518 25.1571 75.4518 25.7969H75.9518C75.9518 24.8036 75.0084 24.0661 73.9421 24.0661V24.5661ZM70.3327 21.2802C70.3327 23.1155 71.9761 24.5661 73.9421 24.5661V24.0661C72.2034 24.0661 70.8327 22.7929 70.8327 21.2802H70.3327ZM73.0882 18.0878C71.5259 18.4341 70.3327 19.7191 70.3327 21.2802H70.8327C70.8327 19.9915 71.8238 18.8802 73.1964 18.576L73.0882 18.0878ZM72.8923 17.9275V18.3319H73.3923V17.9275H72.8923ZM73.9421 16.8999C73.3691 16.8999 72.8923 17.3534 72.8923 17.9275H73.3923C73.3923 17.6427 73.6318 17.3999 73.9421 17.3999V16.8999ZM74.992 17.9275C74.992 17.3534 74.5152 16.8999 73.9421 16.8999V17.3999C74.2524 17.3999 74.492 17.6427 74.492 17.9275H74.992ZM74.992 18.3319V17.9275H74.492V18.3319H74.992ZM77.5516 21.2802C77.5516 19.7191 76.3584 18.4341 74.7961 18.0878L74.6879 18.576C76.0605 18.8802 77.0516 19.9915 77.0516 21.2802H77.5516ZM76.5017 22.3079C77.0748 22.3079 77.5516 21.8543 77.5516 21.2802H77.0516C77.0516 21.565 76.812 21.8079 76.5017 21.8079V22.3079ZM75.4518 21.2802C75.4518 21.8543 75.9286 22.3079 76.5017 22.3079V21.8079C76.1914 21.8079 75.9518 21.565 75.9518 21.2802H75.4518ZM73.9421 20.0495C74.8166 20.0495 75.4518 20.6405 75.4518 21.2802H75.9518C75.9518 20.287 75.0084 19.5495 73.9421 19.5495V20.0495ZM72.4324 21.2802C72.4324 20.6405 73.0677 20.0495 73.9421 20.0495V19.5495C72.8759 19.5495 71.9324 20.287 71.9324 21.2802H72.4324Z" fill="#685CF3"/>
<path d="M1.3957 57.1C1.3957 55.6833 1.67904 54.4417 2.2457 53.375C2.82904 52.2917 3.62904 51.4583 4.6457 50.875C5.66237 50.2917 6.82904 50 8.1457 50C9.81237 50 11.1874 50.4 12.2707 51.2C13.3707 51.9833 14.1124 53.1083 14.4957 54.575H11.4207C11.1707 53.8917 10.7707 53.3583 10.2207 52.975C9.6707 52.5917 8.97904 52.4 8.1457 52.4C6.97904 52.4 6.0457 52.8167 5.3457 53.65C4.66237 54.4667 4.3207 55.6167 4.3207 57.1C4.3207 58.5833 4.66237 59.7417 5.3457 60.575C6.0457 61.4083 6.97904 61.825 8.1457 61.825C9.7957 61.825 10.8874 61.1 11.4207 59.65H14.4957C14.0957 61.05 13.3457 62.1667 12.2457 63C11.1457 63.8167 9.77904 64.225 8.1457 64.225C6.82904 64.225 5.66237 63.9333 4.6457 63.35C3.62904 62.75 2.82904 61.9167 2.2457 60.85C1.67904 59.7667 1.3957 58.5167 1.3957 57.1ZM16.3859 57.05C16.3859 55.6667 16.6693 54.4417 17.2359 53.375C17.8193 52.3083 18.6026 51.4833 19.5859 50.9C20.5859 50.3 21.6859 50 22.8859 50C23.9693 50 24.9109 50.2167 25.7109 50.65C26.5276 51.0667 27.1776 51.5917 27.6609 52.225V50.225H30.5359V64H27.6609V61.95C27.1776 62.6 26.5193 63.1417 25.6859 63.575C24.8526 64.0083 23.9026 64.225 22.8359 64.225C21.6526 64.225 20.5693 63.925 19.5859 63.325C18.6026 62.7083 17.8193 61.8583 17.2359 60.775C16.6693 59.675 16.3859 58.4333 16.3859 57.05ZM27.6609 57.1C27.6609 56.15 27.4609 55.325 27.0609 54.625C26.6776 53.925 26.1693 53.3917 25.5359 53.025C24.9026 52.6583 24.2193 52.475 23.4859 52.475C22.7526 52.475 22.0693 52.6583 21.4359 53.025C20.8026 53.375 20.2859 53.9 19.8859 54.6C19.5026 55.2833 19.3109 56.1 19.3109 57.05C19.3109 58 19.5026 58.8333 19.8859 59.55C20.2859 60.2667 20.8026 60.8167 21.4359 61.2C22.0859 61.5667 22.7693 61.75 23.4859 61.75C24.2193 61.75 24.9026 61.5667 25.5359 61.2C26.1693 60.8333 26.6776 60.3 27.0609 59.6C27.4609 58.8833 27.6609 58.05 27.6609 57.1ZM39.2793 64.225C38.196 64.225 37.221 64.0333 36.3543 63.65C35.5043 63.25 34.8293 62.7167 34.3293 62.05C33.8293 61.3667 33.5626 60.6083 33.5293 59.775H36.4793C36.5293 60.3583 36.8043 60.85 37.3043 61.25C37.821 61.6333 38.4626 61.825 39.2293 61.825C40.0293 61.825 40.646 61.675 41.0793 61.375C41.5293 61.0583 41.7543 60.6583 41.7543 60.175C41.7543 59.6583 41.5043 59.275 41.0043 59.025C40.521 58.775 39.746 58.5 38.6793 58.2C37.646 57.9167 36.8043 57.6417 36.1543 57.375C35.5043 57.1083 34.9376 56.7 34.4543 56.15C33.9876 55.6 33.7543 54.875 33.7543 53.975C33.7543 53.2417 33.971 52.575 34.4043 51.975C34.8376 51.3583 35.4543 50.875 36.2543 50.525C37.071 50.175 38.0043 50 39.0543 50C40.621 50 41.8793 50.4 42.8293 51.2C43.796 51.9833 44.3126 53.0583 44.3793 54.425H41.5293C41.4793 53.8083 41.2293 53.3167 40.7793 52.95C40.3293 52.5833 39.721 52.4 38.9543 52.4C38.2043 52.4 37.6293 52.5417 37.2293 52.825C36.8293 53.1083 36.6293 53.4833 36.6293 53.95C36.6293 54.3167 36.7626 54.625 37.0293 54.875C37.296 55.125 37.621 55.325 38.0043 55.475C38.3876 55.6083 38.9543 55.7833 39.7043 56C40.7043 56.2667 41.521 56.5417 42.1543 56.825C42.8043 57.0917 43.3626 57.4917 43.8293 58.025C44.296 58.5583 44.5376 59.2667 44.5543 60.15C44.5543 60.9333 44.3376 61.6333 43.9043 62.25C43.471 62.8667 42.8543 63.35 42.0543 63.7C41.271 64.05 40.346 64.225 39.2793 64.225ZM61.5088 46.625V64H58.6588V56.4H50.4838V64H47.6338V46.625H50.4838V54.075H58.6588V46.625H61.5088ZM64.3107 57.05C64.3107 55.6667 64.5941 54.4417 65.1607 53.375C65.7441 52.3083 66.5274 51.4833 67.5107 50.9C68.5107 50.3 69.6107 50 70.8107 50C71.8941 50 72.8357 50.2167 73.6357 50.65C74.4524 51.0667 75.1024 51.5917 75.5857 52.225V50.225H78.4607V64H75.5857V61.95C75.1024 62.6 74.4441 63.1417 73.6107 63.575C72.7774 64.0083 71.8274 64.225 70.7607 64.225C69.5774 64.225 68.4941 63.925 67.5107 63.325C66.5274 62.7083 65.7441 61.8583 65.1607 60.775C64.5941 59.675 64.3107 58.4333 64.3107 57.05ZM75.5857 57.1C75.5857 56.15 75.3857 55.325 74.9857 54.625C74.6024 53.925 74.0941 53.3917 73.4607 53.025C72.8274 52.6583 72.1441 52.475 71.4107 52.475C70.6774 52.475 69.9941 52.6583 69.3607 53.025C68.7274 53.375 68.2107 53.9 67.8107 54.6C67.4274 55.2833 67.2357 56.1 67.2357 57.05C67.2357 58 67.4274 58.8333 67.8107 59.55C68.2107 60.2667 68.7274 60.8167 69.3607 61.2C70.0107 61.5667 70.6941 61.75 71.4107 61.75C72.1441 61.75 72.8274 61.5667 73.4607 61.2C74.0941 60.8333 74.6024 60.3 74.9857 59.6C75.3857 58.8833 75.5857 58.05 75.5857 57.1ZM89.1541 50C90.2374 50 91.2041 50.225 92.0541 50.675C92.9208 51.125 93.5958 51.7917 94.0791 52.675C94.5624 53.5583 94.8041 54.625 94.8041 55.875V64H91.9791V56.3C91.9791 55.0667 91.6708 54.125 91.0541 53.475C90.4374 52.8083 89.5958 52.475 88.5291 52.475C87.4624 52.475 86.6124 52.8083 85.9791 53.475C85.3624 54.125 85.0541 55.0667 85.0541 56.3V64H82.2041V50.225H85.0541V51.8C85.5208 51.2333 86.1124 50.7917 86.8291 50.475C87.5624 50.1583 88.3374 50 89.1541 50ZM97.4895 57.05C97.4895 55.6667 97.7728 54.4417 98.3395 53.375C98.9228 52.3083 99.7061 51.4833 100.689 50.9C101.689 50.3 102.798 50 104.014 50C104.914 50 105.798 50.2 106.664 50.6C107.548 50.9833 108.248 51.5 108.764 52.15V45.5H111.639V64H108.764V61.925C108.298 62.5917 107.648 63.1417 106.814 63.575C105.998 64.0083 105.056 64.225 103.989 64.225C102.789 64.225 101.689 63.925 100.689 63.325C99.7061 62.7083 98.9228 61.8583 98.3395 60.775C97.7728 59.675 97.4895 58.4333 97.4895 57.05ZM108.764 57.1C108.764 56.15 108.564 55.325 108.164 54.625C107.781 53.925 107.273 53.3917 106.639 53.025C106.006 52.6583 105.323 52.475 104.589 52.475C103.856 52.475 103.173 52.6583 102.539 53.025C101.906 53.375 101.389 53.9 100.989 54.6C100.606 55.2833 100.414 56.1 100.414 57.05C100.414 58 100.606 58.8333 100.989 59.55C101.389 60.2667 101.906 60.8167 102.539 61.2C103.189 61.5667 103.873 61.75 104.589 61.75C105.323 61.75 106.006 61.5667 106.639 61.2C107.273 60.8333 107.781 60.3 108.164 59.6C108.564 58.8833 108.764 58.05 108.764 57.1ZM118.233 45.5V64H115.383V45.5H118.233ZM134.6 56.775C134.6 57.2917 134.566 57.7583 134.5 58.175H123.975C124.058 59.275 124.466 60.1583 125.2 60.825C125.933 61.4917 126.833 61.825 127.9 61.825C129.433 61.825 130.516 61.1833 131.15 59.9H134.225C133.808 61.1667 133.05 62.2083 131.95 63.025C130.866 63.825 129.516 64.225 127.9 64.225C126.583 64.225 125.4 63.9333 124.35 63.35C123.316 62.75 122.5 61.9167 121.9 60.85C121.316 59.7667 121.025 58.5167 121.025 57.1C121.025 55.6833 121.308 54.4417 121.875 53.375C122.458 52.2917 123.266 51.4583 124.3 50.875C125.35 50.2917 126.55 50 127.9 50C129.2 50 130.358 50.2833 131.375 50.85C132.391 51.4167 133.183 52.2167 133.75 53.25C134.316 54.2667 134.6 55.4417 134.6 56.775ZM131.625 55.875C131.608 54.825 131.233 53.9833 130.5 53.35C129.766 52.7167 128.858 52.4 127.775 52.4C126.791 52.4 125.95 52.7167 125.25 53.35C124.55 53.9667 124.133 54.8083 124 55.875H131.625Z" fill="white"/>
</svg>
